# xmcd
# Track frame offsets:
# 150
# 16735
# 29967
# 46255
# 55852
# 67160
# 76897
# 85445
# 101102
# 111325
# 123697
# 137202
# 147942
# 157962
# 173152
# 185535
# 200220
# 219990
# 229375
# 243025
#
# Disc length: 3386 seconds
# Revision: 0
# Processed by: cddbd v1.4PL0 Copyright (c) Steve Scherf et al.
# Submitted via: VisiTrax 2.9.5.181 - For more info visit www.synapsa.com
#
DISCID=2a0d3814
DTITLE=Boxcar Willie - 35 Tear Jerkin Heartbreakin' Hillbilly Songs - Disc 2
DYEAR=1993
DGENRE=Country
TTITLE0=Train Medley
TTITLE1=From A Rolls To The Rails
TTITLE2=From A Boxcar Door
TTITLE3=I'm Moving On
TTITLE4=Wreck Of The Old '97
TTITLE5=Waitin' For A Train
TTITLE6=Daddy Was A Railroad Man
TTITLE7=Wabash Cannonball
TTITLE8=Bummin' Around
TTITLE9=Lonesome Joe
TTITLE10=Ramblin' Man
TTITLE11=Rock Island Line
TTITLE12=King Of The Road
TTITLE13=Boxcar Blues
TTITLE14=How's That For Leavin'?
TTITLE15=Only In My Mind
TTITLE16=Danny Boy
TTITLE17=Long Long Train
TTITLE18=Lonesome Whistle
TTITLE19=Last Train To Heaven
EXTD=
EXTT0=
EXTT1=
EXTT2=
EXTT3=
EXTT4=
EXTT5=
EXTT6=
EXTT7=
EXTT8=
EXTT9=
EXTT10=
EXTT11=
EXTT12=
EXTT13=
EXTT14=
EXTT15=
EXTT16=
EXTT17=
EXTT18=
EXTT19=
PLAYORDER=
